<?xml version="1.0" encoding="utf-8"?>
<!-- Generator: Adobe Illustrator 21.1.0, SVG Export Plug-In . SVG Version: 6.00 Build 0)  -->
<svg version="1.1" id="Layer_1" xmlns="http://www.w3.org/2000/svg" xmlns:xlink="http://www.w3.org/1999/xlink" x="0px" y="0px"
	 viewBox="0 0 922.1 275.8" style="enable-background:new 0 0 922.1 275.8;" xml:space="preserve">
<style type="text/css">
	.st0{opacity:0.8;fill:#FFFFFF;enable-background:new    ;}
	.st1{fill:#FFFFFF;}
	.st2{fill:none;stroke:#FFFFFF;stroke-miterlimit:10;}
</style>
<path class="st0" d="M676.6,211.8l60.3-175.6c13.6,4.6,26.5,10.8,38.6,18.3L676.6,211.8L676.6,211.8z"/>
<path class="st0" d="M836.5,117.1c16.4,27.4,25.9,59.3,26.2,93.4c0,0.7,0,1.3,0,1.3s-83.3,0-186.1,0L836.5,117.1z"/>
<path class="st1" d="M36.6,133.4h19.2v8.3h0.3c4.4-7.3,9.9-10.3,17.8-10.3c16.5,0,24,12.1,24,41.2s-7.6,41.2-24,41.2
	c-7.6,0-12.7-3.1-16.9-9.3h-0.3v32.9H36.6V133.4z M67.3,198.4c8.7,0,10.5-8.7,10.5-25.8c0-17-1.7-25.8-10.5-25.8
	c-8.9,0-10.6,8.7-10.6,25.8C56.7,189.6,58.4,198.4,67.3,198.4z"/>
<path class="st1" d="M123.7,175.7v6.3c0,9.2,2.5,18.2,9.9,18.2c6.7,0,9.5-5.1,10.6-14.7h18.1c-0.7,18.2-9.5,28.4-28.4,28.4
	c-29.1,0-30.3-22.4-30.3-41.9c0-21,4.1-40.5,31.2-40.5c23.5,0,28.7,15.7,28.7,39.8v4.5h-39.8V175.7z M144.2,163.7
	c-0.4-11.9-1.9-18.6-10.2-18.6c-8,0-10.3,8.3-10.3,15.6v3.1h20.5V163.7z"/>
<path class="st1" d="M170.3,133.4h19.2v10.5h0.3c4.1-7.6,9.8-12.5,18.1-12.5c1.2,0,2.5,0.1,3.6,0.3v19.2c-2-0.1-4.2-0.3-6.3-0.3
	c-7,0-14.9,3.6-14.9,14.1v47h-20.1L170.3,133.4L170.3,133.4z"/>
<path class="st1" d="M226.8,147.1h-10.2v-13.7h10.2v-8.9c0-14.1,8-18.8,21-18.8c3.6,0,7.1,0.1,10.8,0.4v14.3
	c-1.3-0.1-2.6-0.1-3.9-0.1c-5.7,0-7.7,1.7-7.7,6.3v6.8h11.7v13.7H247v64.7h-20.1v-64.7H226.8z"/>
<path class="st1" d="M291.6,131.4c24.2-0.4,30.9,14,30.9,41.2c0,26.8-7.9,41.2-30.9,41.2c-24.2,0.4-30.9-14-30.9-41.2
	C260.7,145.8,268.6,131.4,291.6,131.4z M291.6,200.1c8.2,0,10.8-8,10.8-27.5s-2.6-27.5-10.8-27.5c-9.9,0-10.8,11.5-10.8,27.5
	S281.7,200.1,291.6,200.1z"/>
<path class="st1" d="M329.6,133.4h19.2v10.5h0.3c4.1-7.6,9.8-12.5,18.1-12.5c1.2,0,2.5,0.1,3.6,0.3v19.2c-2-0.1-4.2-0.3-6.3-0.3
	c-7,0-14.9,3.6-14.9,14.1v47h-20.1L329.6,133.4L329.6,133.4z"/>
<path class="st1" d="M378.3,133.4h19.2v8h0.3c5.1-7.1,11.4-10.1,19.8-10.1c9.2,0,15.9,4.5,18.1,12.5h0.3
	c3.1-8.3,10.3-12.5,19.8-12.5c13.3,0,19.5,8.3,19.5,23.5v57h-20.1V157c0-6.6-2.2-10.2-7.9-10.2c-6.4,0-10.5,4.4-10.5,13.4v51.6
	h-20.1V157c0-6.6-2.2-10.2-7.9-10.2c-6.4,0-10.5,4.4-10.5,13.4v51.6h-20.1v-78.4H378.3z"/>
<rect x="485.8" y="107.8" class="st1" width="20.1" height="104"/>
<path class="st1" d="M517.1,106.6h20.1v17.2h-20.1V106.6z M517.1,133.4h20.1v78.4h-20.1V133.4z"/>
<path class="st1" d="M547.7,133.4h19.2v9.2h0.3c4.2-7.7,11.5-11.2,20-11.2c12.5,0,20,6.8,20,22.3v58.1H587v-54
	c0-7.9-2.6-10.9-8.6-10.9c-6.8,0-10.6,4.2-10.6,13v52h-20.1L547.7,133.4L547.7,133.4z"/>
<path class="st1" d="M634.1,175.7v6.3c0,9.2,2.5,18.2,9.9,18.2c6.7,0,9.5-5.1,10.6-14.7h18.1c-0.7,18.2-9.5,28.4-28.4,28.4
	c-29.1,0-30.3-22.4-30.3-41.9c0-21,4.1-40.5,31.2-40.5c23.4,0,28.7,15.7,28.7,39.8v4.5h-39.8V175.7z M654.6,163.7
	c-0.4-11.9-1.9-18.6-10.2-18.6c-8,0-10.3,8.3-10.3,15.6v3.1h20.5V163.7z"/>
<path class="st2" d="M676.5,134.2c21.3,0,40.7,8.6,54.6,22.6c14,14,22.6,33.3,22.6,54.6"/>
<path class="st2" d="M627.8,109.9c15-7.4,31.9-11.6,49.9-11.6c62.1,0,112.4,51.1,112.4,113.2"/>
<path class="st2" d="M580,98.3c26.2-23,60.6-36.9,98.2-36.9c82.4,0,149.2,67.7,149.2,150.1"/>
<path class="st0" d="M879.6,155.1c1.8,6.3,3.3,12.7,4.6,19.2c2.2,11.7,3.4,23.8,3.5,36.1c0,0.7,0,1.5,0,1.5s-96.9,0-211.1,0
	L879.6,155.1z"/>
</svg>
